<svg xmlns="http://www.w3.org/2000/svg" viewBox="0 0 49.09 31.54"><defs><style>.cls-1{fill:#ffffff;}</style></defs><g id="Layer_2" data-name="Layer 2"><g id="Layer_1-2" data-name="Layer 1"><path class="cls-1" d="M40.21,2.57c4.6,0,6.5,1.12,8.88,2V2c-2.38-.92-4.28-2-8.88-2h-.15L37.8,2.69C38.52,2.62,39.31,2.57,40.21,2.57Z"/><path class="cls-1" d="M8.88,0C4.27,0,2.38,1.12,0,2V4.61c2.38-.92,4.27-2,8.88-2,.9,0,1.69.05,2.41.12L9,0Z"/><path class="cls-1" d="M24.54,5.81c4.81,0,6.67-1.22,9.2-2.16L36.55.29c-4.45.8-5.63,2.94-12,2.94S17,1.09,12.54.29l2.81,3.36C17.88,4.59,19.73,5.81,24.54,5.81Z"/><path class="cls-1" d="M8.88,5.15c-4.61,0-6.5,1.12-8.88,2V9.76c2.38-.92,4.27-2,8.88-2a18,18,0,0,1,8.06,1.71l-3.1-3.7A18.91,18.91,0,0,0,8.88,5.15Z"/><path class="cls-1" d="M18.57,7.48l2.72,3.25a21.65,21.65,0,0,0,3.25.22,21.79,21.79,0,0,0,3.26-.22l2.72-3.25a17.51,17.51,0,0,1-6,.9A17.45,17.45,0,0,1,18.57,7.48Z"/><path class="cls-1" d="M40.21,7.72c4.6,0,6.5,1.12,8.88,2V7.19c-2.38-.92-4.28-2-8.88-2a18.85,18.85,0,0,0-5,.58l-3.1,3.7A17.92,17.92,0,0,1,40.21,7.72Z"/><path class="cls-1" d="M8.88,10.29c-4.61,0-6.5,1.12-8.88,2.05v2.57c2.38-.92,4.27-2,8.88-2a18,18,0,0,1,8,1.69V12A18,18,0,0,0,8.88,10.29Z"/><path class="cls-1" d="M40.21,12.87c4.6,0,6.5,1.12,8.88,2V12.34c-2.38-.93-4.28-2.05-8.88-2.05a17.92,17.92,0,0,0-8,1.7v2.57A17.94,17.94,0,0,1,40.21,12.87Z"/><path class="cls-1" d="M8.88,15.44c-4.61,0-6.5,1.12-8.88,2v2.58c2.38-.93,4.27-2,8.88-2a18,18,0,0,1,8,1.7V17.14A17.81,17.81,0,0,0,8.88,15.44Z"/><path class="cls-1" d="M40.21,18c4.6,0,6.5,1.12,8.88,2V17.48c-2.38-.92-4.28-2-8.88-2a17.78,17.78,0,0,0-8,1.7v2.57A17.92,17.92,0,0,1,40.21,18Z"/><path class="cls-1" d="M8.88,20.59c-4.61,0-6.5,1.12-8.88,2V25.2c2.38-.92,4.27-2,8.88-2a17.83,17.83,0,0,1,5.71.81l2.21-1.73A17.76,17.76,0,0,0,8.88,20.59Z"/><path class="cls-1" d="M40.21,23.16c4.6,0,6.5,1.12,8.88,2V22.63c-2.38-.92-4.28-2-8.88-2a17.85,17.85,0,0,0-7.93,1.65L34.5,24A17.83,17.83,0,0,1,40.21,23.16Z"/><path class="cls-1" d="M19.59,23.24,17.31,25a17.22,17.22,0,0,0,7.23,1.37A17.27,17.27,0,0,0,31.78,25L29.5,23.24a18.91,18.91,0,0,1-5,.58A18.83,18.83,0,0,1,19.59,23.24Z"/><path class="cls-1" d="M8.88,25.74c-4.61,0-6.5,1.11-8.88,2v2.57c2.38-.92,4.27-2,8.88-2H9l3-2.36A22.36,22.36,0,0,0,8.88,25.74Z"/><path class="cls-1" d="M40.21,28.31c4.6,0,6.5,1.12,8.88,2V27.78c-2.38-.93-4.28-2-8.88-2A22.15,22.15,0,0,0,37,26l3,2.36Z"/><path class="cls-1" d="M24.54,29c-4.95,0-6.77-1.29-9.42-2.24l-2.43,1.9c4.32.82,5.55,2.91,11.85,2.91s7.54-2.09,11.86-2.91L34,26.73C31.32,27.68,29.49,29,24.54,29Z"/><path class="cls-1" d="M20.56,17.27v0a4.24,4.24,0,0,1,4.36-4.31,4.33,4.33,0,0,1,3.29,1.28L27,15.56a3.09,3.09,0,0,0-2.14-.94,2.48,2.48,0,0,0-2.42,2.6v0a2.48,2.48,0,0,0,2.42,2.63,3,3,0,0,0,2.2-1l1.17,1.18a4.28,4.28,0,0,1-3.43,1.49A4.22,4.22,0,0,1,20.56,17.27Z"/></g></g></svg>