<svg height="100" width="100" xmlns="http://www.w3.org/2000/svg">
  <polygon points="0,0 0,15 17,20 34,10 43,14 54,33 56,30 70,15 78,24 93,12 100,20 100,0" style="fill:#5d6a74;" />
  <polygon points="0,0 0,50 15,45 31,49 42,60 52,40 63,49 74,54 81,43 87,55 100,40 100,0" style="fill:#5d6a7499;" />
  <polygon points="0,0 0,65 24,69 27,60 36,78 49,64 60,69 69,74 83,63 94,65 100,70 100,0" style="fill:#5d6a7455;" />
  <polygon points="0,0 0,85 22,95 33,88 38,98 48,93 58,94 71,87 80,84 93,93 100,81 100,0" style="fill:#5d6a7411;" />
</svg>