<svg xmlns="http://www.w3.org/2000/svg" fill="none" viewBox="0 0 160 36">
  <path fill="#141414" d="M17.3 28H2V7H17v2.8H5.3v6h10.2v2.7H5.3v6.7h12V28Zm6.5.4c-3 0-5-1.7-5-4.3 0-3.3 2.6-4.3 6.3-5 2.4-.5 3.8-.8 3.8-2.3 0-1-.6-2-2.8-2-2.6 0-3.4.9-3.6 2.9h-3c.2-3 2.1-5.2 6.7-5.2 3 0 5.6 1.3 5.6 5.2v6.9c0 1 .1 1.6.7 1.6h.3V28l-1.5.1c-1.4 0-2.2-.5-2.3-2.2h-.1c-1 1.5-2.7 2.5-5.1 2.5Zm.6-2.3c2.6 0 4.5-1.3 4.5-4V20c-.4.4-1.7.8-3.3 1-2.6.6-3.7 1.4-3.7 3 0 1.3.7 2 2.5 2Zm16.8 2.3c-4.6 0-6.8-2.3-7-5.4h3c0 1.7 1.2 3 4 3 2.5 0 3.2-1 3.2-2.1 0-1.9-2-2.1-4-2.5-2.6-.6-5.6-1.4-5.6-4.5 0-2.6 2-4.3 5.7-4.3 4.1 0 6 2.2 6.3 4.7h-3c-.1-1.1-.7-2.4-3.2-2.4-2 0-2.8.7-2.8 1.9 0 1.5 1.7 1.7 3.8 2.1 2.8.7 5.8 1.5 5.8 4.8 0 3-2.3 4.7-6.2 4.7ZM55 25.8l1.2-.1V28l-1.8.2c-2.5 0-4-1-4-4.4v-8.4h-2.1V13h2.1V8.2h3V13h2.8v2.4h-2.9v8.5c0 1.5.5 1.9 1.7 1.9Zm9.5 2.6c-4.6 0-6.8-2.3-7-5.4h3c.1 1.7 1.2 3 4 3 2.5 0 3.2-1 3.2-2.1 0-1.9-2-2.1-4-2.5-2.6-.6-5.6-1.4-5.6-4.5 0-2.6 2.1-4.3 5.7-4.3 4.2 0 6.1 2.2 6.3 4.7h-2.9C67 16.2 66.4 15 64 15c-2 0-2.8.7-2.8 1.9 0 1.5 1.7 1.7 3.8 2.1 2.8.7 5.8 1.5 5.8 4.8 0 3-2.2 4.7-6.2 4.7Zm11.6-18h-3.3V7.1H76v3.1ZM75.8 28H73V13h2.8v15Zm14-13.2V7h2.8v21h-2.9v-1.8c-.9 1-2.3 2.2-4.6 2.2-3.9 0-6.8-3-6.8-7.9 0-5 3-8 6.8-8 2.3 0 3.7 1.1 4.6 2.3ZM85.4 26c2.6 0 4.2-2.1 4.2-5.5S88.1 15 85.5 15c-2.8 0-4.2 2.6-4.2 5.5 0 3 1.4 5.5 4.2 5.5Zm24.1-5.8v1H98.1c0 2.6 1.5 4.9 4.5 4.9 2.6 0 3.6-1.7 4-2.7h2.9c-.8 2.9-3 5-7 5-4.8 0-7.4-3.3-7.4-8 0-4.6 2.8-7.9 7.4-7.9 4.6 0 7.1 3 7.1 7.7ZM98.1 19h8.5c0-2.4-1.6-4.1-4.2-4.1a4.2 4.2 0 0 0-4.3 4.1Zm23.2 9.4c-6 0-9.8-4.6-9.8-10.9 0-6.4 3.8-11 9.8-11 5.3 0 8.5 3.4 9 7.6H127c-.4-2-1.7-4.8-5.8-4.8-4.6 0-6.4 4-6.4 8.2 0 4.2 1.8 8.1 6.4 8.1 4.1 0 5.5-2.7 5.8-5.2h3.3c-.4 4.6-3.7 8-9 8Zm18.1 0c-4.6 0-7.5-3.2-7.5-7.9s2.9-8 7.6-8c4.6 0 7.4 3.3 7.4 8s-2.8 8-7.5 8Zm0-2.3c3.1 0 4.5-2.5 4.5-5.6 0-3.2-1.4-5.6-4.4-5.6-3.2 0-4.6 2.4-4.6 5.6 0 3.1 1.4 5.6 4.6 5.6ZM154.2 14.7a5.7 5.7 0 0 1-5.7-5.8c0-3.4 2.5-5.9 5.7-5.9 3.3 0 5.8 2.5 5.8 5.9 0 3.3-2.5 5.8-5.8 5.8Zm0-1c2.7 0 4.7-2 4.7-4.8 0-2.9-2-4.9-4.7-4.9-2.6 0-4.6 2-4.6 4.9 0 2.8 2 4.8 4.6 4.8Zm-.8-1.6h-1.6V5.6h2.7c1.5 0 2.3.7 2.3 2 0 .8-.5 1.3-1.3 1.5 1.6.3 1 2.8 1.5 2.9h-1.7c-.3-.2.2-2.2-1.3-2.2h-.6V12Zm0-3.6h.7c.6 0 1.2-.1 1.2-.8 0-.7-.6-.9-1.2-.9h-.7v1.7Z"/>
</svg>